 <svg class="push-this" width="19" height="15" viewBox="0 0 19 15" fill="none" xmlns="http://www.w3.org/2000/svg">
                  <path d="M12.7446 14.2159C12.1822 14.6664 11.3527 14.6342 10.8285 14.1194L10.7302 14.0126C10.2715 13.4602 10.3042 12.6455 10.8285 12.1306L14.1118 8.90625H2.29545C1.50468 8.90625 0.863636 8.27665 0.863636 7.5C0.863636 6.72335 1.50468 6.09375 2.29545 6.09375H14.1118L10.8285 2.86937L10.7302 2.76257C10.2715 2.21023 10.3042 1.39548 10.8285 0.88063C11.3876 0.331455 12.2942 0.331455 12.8534 0.88063L18.5806 6.50563L18.6789 6.61243C19.1376 7.16477 19.1048 7.97952 18.5806 8.49437L12.8534 14.1194L12.7446 14.2159Z" fill="#0D0C22"></path>
              </svg>